<?xml version="1.0" standalone="no"?>
<!DOCTYPE svg PUBLIC "-//W3C//DTD SVG 20010904//EN"
 "http://www.w3.org/TR/2001/REC-SVG-20010904/DTD/svg10.dtd">
<svg version="1.0" xmlns="http://www.w3.org/2000/svg"
 width="425.000000pt" height="360.000000pt" viewBox="0 0 425.000000 360.000000"
 preserveAspectRatio="xMidYMid meet">

<g transform="translate(0.000000,360.000000) scale(0.100000,-0.100000)"
fill="#000000" stroke="none">
<path d="M3826 3575 c-75 -30 -114 -58 -161 -115 -75 -89 -107 -184 -170 -512
-46 -240 -75 -340 -132 -458 -39 -78 -62 -110 -133 -181 -166 -168 -338 -239
-775 -319 -121 -22 -239 -45 -262 -50 -40 -10 -45 -8 -89 26 -174 132 -414
155 -494 46 l-22 -30 -52 23 c-70 31 -171 51 -371 75 -260 31 -312 48 -421
140 -65 55 -119 80 -177 80 -93 0 -159 -52 -191 -152 -32 -99 -12 -187 60
-267 75 -83 173 -128 343 -155 104 -17 131 -29 131 -57 0 -40 -23 -60 -128
-113 -206 -104 -377 -229 -549 -403 -171 -174 -240 -301 -230 -428 10 -133 92
-215 216 -215 l49 0 -14 -37 c-20 -57 -18 -147 5 -191 61 -119 201 -159 342
-98 13 6 17 -1 21 -32 8 -54 32 -88 87 -120 40 -23 57 -27 126 -27 65 0 90 5
135 26 73 35 150 97 206 167 58 74 218 312 320 475 106 171 166 242 296 346
l109 88 46 -24 c126 -63 300 12 372 160 40 81 56 182 44 265 -7 45 -7 65 1 68
6 2 137 33 291 68 447 103 628 162 880 289 166 83 275 157 376 257 234 231
353 557 336 919 -10 202 -55 340 -138 421 -74 71 -179 88 -283 45z m-3205
-1310 c25 -9 67 -34 94 -57 73 -60 134 -97 189 -113 27 -8 142 -26 255 -40
341 -43 436 -79 582 -225 73 -72 93 -100 134 -182 43 -89 65 -118 65 -86 0 7
-20 53 -45 103 -50 101 -142 210 -224 266 -28 19 -51 39 -51 46 0 18 57 61 98
73 50 14 85 12 161 -5 90 -22 174 -69 253 -144 85 -80 140 -163 175 -266 24
-68 28 -96 28 -190 0 -100 -3 -116 -29 -172 -32 -71 -94 -134 -159 -164 -53
-24 -144 -25 -191 -2 l-35 16 33 46 c19 25 41 63 50 85 18 42 22 146 6 146 -5
0 -10 -17 -10 -39 0 -102 -59 -187 -224 -320 -141 -115 -192 -175 -311 -366
-256 -409 -369 -551 -482 -607 -154 -76 -333 -28 -333 89 0 62 196 357 377
566 54 63 82 102 76 108 -19 19 -240 -255 -374 -465 -98 -151 -164 -195 -281
-184 -151 15 -226 164 -156 308 46 93 137 189 372 390 124 106 226 197 226
201 0 23 -34 -2 -193 -138 -266 -227 -291 -250 -348 -321 -63 -78 -65 -80
-105 -88 -76 -14 -180 49 -202 124 -41 137 11 266 183 450 155 166 345 308
566 423 98 50 124 68 136 95 31 65 -3 105 -102 119 -91 13 -189 37 -242 61
-65 28 -150 106 -174 159 -60 131 24 307 152 314 8 1 36 -6 60 -14z"/>
<path d="M1080 1591 c0 -30 156 -104 262 -125 101 -21 158 -21 158 -1 0 11
-13 15 -53 15 -78 0 -199 34 -284 80 -81 44 -83 44 -83 31z"/>
<path d="M1311 1178 c1 -147 7 -189 27 -196 11 -3 12 6 6 44 -5 27 -8 102 -8
167 0 90 -3 117 -13 117 -10 0 -13 -29 -12 -132z"/>
</g>
</svg>
