<?xml version="1.0" standalone="no"?>
<!DOCTYPE svg PUBLIC "-//W3C//DTD SVG 20010904//EN"
 "http://www.w3.org/TR/2001/REC-SVG-20010904/DTD/svg10.dtd">
<svg version="1.0" xmlns="http://www.w3.org/2000/svg"
 width="1560.000000pt" height="1920.000000pt" viewBox="0 0 1560.000000 1920.000000"
 preserveAspectRatio="xMidYMid meet">

<g transform="translate(0.000000,1920.000000) scale(0.100000,-0.100000)"
fill="#000000" stroke="none">
<path d="M10510 16972 c-138 -36 -251 -135 -332 -288 -58 -111 -74 -163 -137
-449 -127 -578 -366 -1690 -426 -1980 -36 -176 -83 -405 -105 -508 -38 -183
-59 -242 -83 -234 -6 2 -22 24 -35 49 -17 34 -30 91 -47 219 -14 96 -49 356
-80 579 -139 1016 -234 1597 -287 1760 -74 230 -232 396 -410 431 -108 20
-228 -15 -312 -92 -68 -62 -109 -125 -142 -220 -52 -146 -45 -326 41 -1124
111 -1022 130 -1218 146 -1530 19 -393 -26 -961 -113 -1395 -16 -85 -33 -161
-37 -168 -5 -9 -28 8 -75 55 -92 92 -114 126 -136 221 -70 293 -300 542 -613
663 -242 93 -612 136 -810 94 -234 -49 -348 -200 -273 -360 31 -67 85 -121
198 -195 127 -86 222 -164 362 -300 338 -327 587 -675 661 -923 9 -28 23 -119
31 -202 8 -82 22 -190 30 -240 51 -300 164 -598 311 -819 64 -96 207 -253 282
-309 l35 -26 -26 -48 c-92 -170 -91 -402 2 -601 71 -152 227 -325 383 -427 42
-27 77 -56 77 -64 0 -28 -150 -538 -224 -761 -164 -493 -327 -890 -541 -1315
-167 -331 -269 -509 -450 -780 -212 -317 -373 -514 -603 -737 -70 -67 -166
-154 -212 -191 -233 -188 -538 -358 -794 -442 -273 -90 -648 -147 -961 -147
-254 0 -449 28 -654 94 -120 38 -168 62 -301 151 -182 122 -252 177 -350 277
-52 54 -124 116 -159 140 -383 256 -912 210 -1239 -109 -312 -305 -389 -766
-193 -1166 64 -131 147 -241 279 -372 556 -550 1314 -872 2247 -953 177 -16
613 -13 798 5 813 78 1479 325 2076 770 1226 912 2109 2636 2591 5060 23 116
43 211 44 212 1 1 44 9 96 17 284 46 510 154 667 319 132 139 193 278 195 442
0 50 -2 100 -6 112 -6 18 3 26 61 58 171 94 335 264 480 499 173 280 387 814
688 1721 176 529 237 667 392 880 286 395 874 1285 1140 1726 121 200 149 283
140 413 -14 214 -186 354 -391 319 -84 -14 -195 -69 -275 -135 -119 -98 -446
-492 -846 -1018 -498 -656 -559 -726 -644 -737 -33 -5 -41 -2 -51 17 -7 13
-10 39 -7 59 3 20 68 216 145 436 77 220 226 643 330 940 230 654 382 1105
417 1240 96 364 -23 647 -294 697 -170 32 -357 -68 -490 -262 -84 -122 -154
-291 -481 -1165 -272 -728 -446 -1167 -527 -1330 -24 -48 -69 -105 -84 -105
-30 0 12 263 240 1517 212 1161 261 1490 242 1620 -13 90 -41 161 -92 233 -69
98 -177 168 -293 189 -78 14 -108 13 -186 -7z m245 -123 c67 -31 145 -111 180
-184 21 -45 29 -80 33 -139 11 -178 -78 -708 -328 -1961 -159 -797 -210 -1078
-210 -1149 0 -105 63 -176 156 -176 161 0 195 69 654 1355 437 1222 477 1318
606 1454 81 86 163 132 248 138 95 8 142 -9 207 -76 70 -71 89 -123 96 -257 5
-90 2 -114 -26 -225 -61 -243 -297 -919 -796 -2274 -167 -454 -174 -492 -100
-574 74 -81 186 -77 308 13 54 39 226 255 581 729 472 632 663 867 820 1014
178 167 371 183 461 39 28 -46 30 -56 30 -145 -1 -85 -4 -103 -31 -161 -88
-188 -864 -1355 -1216 -1829 -202 -271 -254 -380 -446 -936 -103 -297 -148
-419 -292 -794 -243 -633 -418 -958 -630 -1172 -253 -254 -536 -325 -915 -228
-174 44 -315 120 -425 229 -93 91 -131 156 -165 280 -40 146 -44 147 -44 25
-1 -174 35 -280 139 -403 137 -163 372 -286 628 -328 72 -12 136 -15 249 -11
l151 5 7 -47 c9 -64 -17 -177 -57 -254 -44 -84 -163 -200 -262 -256 -192 -109
-372 -152 -661 -158 -360 -9 -668 51 -941 181 -315 151 -500 355 -551 607 -27
136 4 272 85 366 l27 33 89 -30 c224 -76 452 -61 689 47 42 20 77 39 77 42 0
4 -39 3 -87 -2 -49 -5 -171 -6 -273 -4 -202 6 -283 21 -407 77 -394 179 -689
708 -757 1361 -19 175 -42 263 -105 394 -104 216 -273 438 -531 696 -192 192
-354 327 -500 416 -196 120 -241 212 -151 302 77 77 242 111 451 92 465 -43
757 -205 906 -506 42 -85 73 -195 74 -258 0 -60 141 -212 317 -343 126 -94
229 -144 376 -185 371 -101 747 -402 902 -724 58 -120 75 -188 82 -328 3 -65
9 -115 14 -110 4 4 19 48 33 97 58 199 16 406 -127 619 -179 268 -498 476
-877 572 -127 32 -150 43 -150 69 0 12 7 74 15 139 36 286 48 539 49 982 1
478 1 477 -69 1160 -82 800 -165 1743 -165 1868 1 196 68 344 189 415 63 37
163 38 236 3 106 -52 210 -200 254 -362 46 -167 174 -1001 276 -1804 109 -859
98 -797 160 -861 63 -66 136 -76 207 -30 51 33 64 78 158 551 205 1031 502
2434 541 2562 57 184 164 316 297 366 65 24 170 18 237 -14z"/>
<path d="M9250 12414 c-125 -17 -154 -34 -58 -34 76 0 228 -14 378 -36 458
-65 923 -226 1399 -482 63 -34 116 -60 118 -58 6 6 -126 118 -219 187 -236
175 -571 326 -859 388 -236 50 -540 64 -759 35z"/>
<path d="M10638 11410 c-117 -24 -178 -45 -273 -93 -199 -99 -357 -249 -464
-438 -34 -61 -94 -216 -89 -231 2 -5 32 31 68 79 92 127 306 336 415 409 162
108 349 187 584 247 77 20 125 37 116 41 -36 13 -271 4 -357 -14z"/>
</g>
</svg>
